PathFileType  4	(X/Y/Z) C:\Users\antoi\Documents\MyRepositories\mobilecap\ResultsAnalysis
DataRate	CameraRate	NumFrames	NumMarkers	Units	OrigDataRate	OrigDataStartFrame	OrigNumFrames
100.0	100.0	4	51	mm	100.0	172	1371
Frame#	Time	r_knee			r_shank_antsup			r_ankle			r_calc			r_5meta			r_toe			L_knee			L_shank_antsup			L_ankle			L_calc			L_5meta			L_toe			r_sh2			r_sh3			r_sh4			L_sh2			L_sh3			r_thigh1			r_thigh2			r_thigh3			r_thigh4			r_thigh5			L_thigh1			L_thigh2			L_thigh3			L_thigh4			r.ASIS			r.PSIS			L.ASIS			L.PSIS			C7			R_Shoulder			L_Shoulder			R_Sternum			L_Sternum			R_humerus			R_elbow_med			R_elbow_lat			R_forearm			R_wrist_radius			R_wrist_ulna			L_humerus			L_elbow_med			L_elbow_lat			L_forearm			L_wrist_radius			L_wrist_ulna			R_HJC			L_HJC			R_HJC_reg			L_HJC_reg			
		X1	Y1	Z1	X2	Y2	Z2	X3	Y3	Z3	X4	Y4	Z4	X5	Y5	Z5	X6	Y6	Z6	X7	Y7	Z7	X8	Y8	Z8	X9	Y9	Z9	X10	Y10	Z10	X11	Y11	Z11	X12	Y12	Z12	X13	Y13	Z13	X14	Y14	Z14	X15	Y15	Z15	X16	Y16	Z16	X17	Y17	Z17	X18	Y18	Z18	X19	Y19	Z19	X20	Y20	Z20	X21	Y21	Z21	X22	Y22	Z22	X23	Y23	Z23	X24	Y24	Z24	X25	Y25	Z25	X26	Y26	Z26	X27	Y27	Z27	X28	Y28	Z28	X29	Y29	Z29	X30	Y30	Z30	X31	Y31	Z31	X32	Y32	Z32	X33	Y33	Z33	X34	Y34	Z34	X35	Y35	Z35	X36	Y36	Z36	X37	Y37	Z37	X38	Y38	Z38	X39	Y39	Z39	X40	Y40	Z40	X41	Y41	Z41	X42	Y42	Z42	X43	Y43	Z43	X44	Y44	Z44	X45	Y45	Z45	X46	Y46	Z46	X47	Y47	Z47	X48	Y48	Z48	X49	Y49	Z49	X50	Y50	Z50	X51	Y51	Z51	

172	1.71000000	-208.74770	503.37971	-417.38624	-169.26873	458.01232	-424.30674	-248.36111	98.46549	-427.15269	-309.57773	57.92302	-473.46588	-125.27745	40.24999	-390.44365	-86.14468	59.88047	-447.66436	-230.70502	501.00488	-774.42754	-206.13265	418.11205	-789.61599	-266.32194	97.36383	-753.06904	-324.67256	57.83968	-702.72940	-149.17625	41.28319	-791.77580	-102.39991	58.88283	-739.49392	-175.52400	342.47661	-431.84720	-236.83263	458.57602	-386.25257	-240.79185	342.43347	-379.17432	-293.74862	431.75933	-794.31958	-299.08830	309.19384	-793.83988	-129.34296	798.98948	-485.35560	-119.46417	688.71489	-470.57607	-143.29087	671.27324	-409.53057	-197.25245	803.88645	-397.47741	-191.44057	689.85690	-386.34317	-190.24047	824.27601	-779.38357	-191.17005	683.19704	-798.53253	-302.96729	822.68580	-774.44187	-302.51754	681.74691	-763.88162	-152.23069	971.18451	-467.56601	-341.26639	1005.35004	-543.53997	-154.47622	959.40052	-707.84878	-343.28471	1006.40368	-641.92192	-240.42608	1467.54772	-603.77491	-169.41871	1437.55238	-440.06494	-179.86216	1422.79100	-761.66790	-133.78755	1371.69540	-582.77172	-133.19883	1368.59645	-621.05056	-213.64685	1219.23292	-333.84897	-289.87616	1122.87931	-356.06207	-243.02439	1135.61426	-302.22904	-118.16682	1148.62628	-366.09519	-49.00286	1184.27073	-429.99038	-35.78300	1142.94200	-418.62897	-238.29499	1207.56191	-856.57148	-297.67383	1097.02295	-811.38754	-272.82411	1105.97958	-879.59462	-133.02989	1109.44454	-826.39452	-50.32314	1139.89487	-771.54679	-43.53685	1094.66596	-770.08159	-227.67174	889.59720	-502.15630	-240.93635	892.25461	-692.34684	-221.53356	892.42396	-500.37182	-224.79356	894.12437	-659.11293	
173	1.72000000	-208.32039	503.31408	-417.41067	-168.61055	457.87359	-424.69243	-248.44189	99.26454	-427.09822	-310.08265	59.65366	-473.56199	-125.26729	40.26345	-390.45469	-86.12755	59.85689	-447.67765	-230.15260	500.79388	-774.13466	-205.40803	417.90536	-789.28941	-266.26944	97.39230	-753.08463	-324.66035	57.84389	-702.72456	-149.16301	41.28813	-791.77513	-102.40600	58.87024	-739.46405	-175.05185	342.37849	-432.09842	-236.07863	458.49107	-386.72835	-240.21203	342.25659	-379.70619	-292.89641	431.70080	-794.22586	-298.54769	309.17349	-793.74469	-131.03983	799.07765	-485.81234	-120.60073	688.98040	-470.85601	-144.02579	671.29883	-409.82650	-198.65592	803.69616	-397.64998	-192.03954	689.82661	-386.28239	-191.65813	824.05185	-778.95455	-191.75122	683.04220	-798.31398	-304.40907	821.94701	-775.03949	-303.25357	680.96920	-764.16241	-154.35683	970.79931	-467.73501	-343.30836	1005.89174	-543.55491	-156.75068	958.74911	-707.58317	-345.34432	1006.97036	-642.22960	-239.26980	1467.39198	-603.93300	-168.43801	1437.02692	-440.04262	-178.80449	1422.25858	-761.83424	-133.17804	1371.05767	-582.75163	-132.53482	1367.92911	-621.15783	-213.25820	1218.98969	-333.65412	-289.82013	1122.77086	-355.70203	-242.97032	1135.43380	-301.99608	-118.10105	1148.15876	-366.05627	-49.00965	1183.73537	-429.77044	-35.73753	1142.27946	-418.65714	-237.70997	1207.21266	-856.63538	-297.25785	1096.70487	-811.29814	-272.36138	1105.64885	-879.67107	-132.56989	1108.95313	-826.46311	-49.90271	1139.45586	-771.56722	-43.04931	1094.14663	-769.98151	-230.36293	889.60574	-502.09440	-243.55922	892.11475	-692.29195	-224.06858	892.35122	-500.46000	-227.33931	894.08486	-658.92334	
174	1.73000000	-207.45527	503.10055	-417.82466	-167.48528	457.71350	-424.97448	-248.33606	99.00210	-427.17142	-310.42080	60.87384	-473.64392	-125.26970	40.27225	-390.46554	-86.10175	59.83534	-447.70498	-229.15463	500.48045	-773.64948	-204.30884	417.57945	-788.84923	-266.19213	97.42828	-753.11537	-324.64257	57.84862	-702.71949	-149.15496	41.29168	-791.79191	-102.40115	58.85618	-739.49111	-174.19618	342.04335	-432.43994	-234.93205	458.17651	-387.26452	-239.70730	342.51830	-379.61456	-291.67304	431.72974	-794.19165	-297.74833	309.26303	-793.81912	-132.95573	799.39878	-486.23217	-121.67234	689.39875	-471.36261	-144.51862	671.46690	-410.31823	-200.10191	803.41445	-397.75657	-192.64800	689.52671	-386.45109	-193.19395	823.81617	-778.57575	-192.23141	682.80918	-798.01638	-305.90305	821.08817	-775.50845	-303.93236	680.05915	-764.36667	-156.78432	970.30389	-468.00784	-345.61453	1006.44061	-543.65182	-159.15708	958.27550	-707.28646	-347.62981	1007.37691	-642.34016	-237.98283	1467.15474	-604.11625	-167.29930	1436.29986	-440.03978	-177.75318	1421.63159	-761.92280	-132.41301	1370.23488	-582.83307	-131.90530	1367.18548	-621.15409	-212.78598	1218.61145	-333.42376	-289.52690	1122.49498	-355.27159	-242.70718	1135.16538	-301.71160	-117.90636	1147.59858	-366.02339	-48.79007	1182.99176	-429.77095	-35.62584	1141.46273	-418.84655	-237.02438	1206.69363	-856.73364	-296.65459	1096.34445	-811.46622	-271.76213	1105.17984	-879.76004	-131.99949	1108.51466	-826.58493	-49.39927	1138.97028	-771.60095	-42.47781	1093.64167	-769.99530	-233.23699	889.53302	-502.10214	-246.34091	892.04806	-692.30604	-226.92959	892.59396	-500.53407	-230.15865	894.09513	-658.62447	
175	1.74000000	-206.07722	502.83626	-418.48087	-165.93728	457.53146	-425.17306	-247.98138	98.06819	-427.18721	-310.00181	59.76524	-473.64367	-125.27218	40.27616	-390.47293	-86.05925	59.79441	-447.74065	-227.70054	500.07871	-773.21621	-202.74012	417.20423	-788.49804	-266.08173	97.50220	-753.18929	-324.61159	57.86086	-702.70849	-149.14971	41.25247	-791.73379	-102.39306	58.83871	-739.49661	-173.04134	341.90260	-432.89224	-233.49387	458.13220	-387.59815	-238.58389	342.76689	-379.49707	-290.02401	431.80723	-794.11552	-296.61145	309.37748	-793.80268	-135.10524	799.98448	-486.63756	-122.69362	689.89739	-472.23286	-144.88674	671.72174	-410.87913	-201.68364	802.99897	-397.76874	-193.20224	689.09866	-386.75149	-194.83517	823.59300	-778.21896	-192.59735	682.65851	-797.79287	-307.56078	819.96328	-775.86776	-304.51127	679.04330	-764.60275	-159.54628	969.70716	-468.15749	-348.17662	1006.93466	-543.62556	-161.96268	957.70448	-706.74978	-350.09860	1007.83913	-642.26199	-236.55556	1466.78514	-604.17949	-165.98789	1435.35842	-440.08074	-176.68306	1420.80698	-761.89539	-131.61900	1369.23225	-582.94792	-131.18077	1366.26107	-621.16621	-212.16331	1218.07149	-333.18961	-289.00885	1122.02007	-354.84436	-242.15064	1134.65886	-301.37923	-117.49702	1146.87739	-365.99469	-48.35178	1182.11031	-429.83011	-35.39955	1140.48897	-419.03935	-236.19077	1206.03275	-856.95596	-295.97894	1095.82552	-812.07758	-270.91812	1104.51371	-880.02416	-131.23117	1108.08746	-826.81788	-48.72120	1138.45749	-771.66275	-41.78090	1093.15055	-770.04980	-236.47320	889.39256	-501.95093	-249.47540	891.94255	-692.16132	-230.17287	892.65938	-500.59295	-233.24444	894.10410	-658.23427	
